<svg width="548" height="493" xmlns="http://www.w3.org/2000/svg"><g transform="translate(1 -1)" fill="none" fill-rule="evenodd"><path d="M237.92 196.32a5.79 5.79 0 1 1 5.79-5.78 5.78 5.78 0 0 1-5.79 5.78zm0-9.57a3.79 3.79 0 1 0 0 7.58 3.79 3.79 0 0 0 0-7.58z" fill="#640D19" fill-rule="nonzero" opacity=".25"/><g opacity=".25" fill="#640D19" fill-rule="nonzero"><path d="M253.24 210.66a.92.92 0 0 1-.91-.92V198.9a.92.92 0 0 1 1.83 0v10.84a.92.92 0 0 1-.92.92z"/><path d="M258.63 205.24h-10.84a.92.92 0 0 1 0-1.83h10.84a.92.92 0 1 1 0 1.83z"/></g><path d="M74.78 471.73a33.35 33.35 0 0 0 33.36-33.36V404.1a6.12 6.12 0 0 0-6.13-6.12v-5.24a7.11 7.11 0 0 0-6.83-7.19 7 7 0 0 0-7.08 7v-12.81c-.006-6.375-5.175-11.54-11.55-11.54-6.375 0-11.544 5.165-11.55 11.54v5.76a9.46 9.46 0 0 0-7.41-3.58 9.5 9.5 0 0 0-9.5 9.5v5.82a6.13 6.13 0 0 0-8.5 5.86v35.27a33.35 33.35 0 0 0 33.36 33.36h1.83z" fill="#B8D47B" fill-rule="nonzero"/><path d="M103.14 396.94v-4.2a8.42 8.42 0 0 0-2.46-5.95 7.93 7.93 0 0 0-5.48-2.36 8.59 8.59 0 0 0-2.4.33l-.48.15a7.86 7.86 0 0 0-2.93 1.83l-.17.17v-7.17c-.193-6.862-5.81-12.324-12.675-12.324-6.864 0-12.482 5.462-12.675 12.324v3.12a10.62 10.62 0 0 0-16.9 8.56v4.33a7.19 7.19 0 0 0-1.61-.1 7.36 7.36 0 0 0-6.9 7.45v35.27a34.46 34.46 0 0 0 34.49 34.49h1.83a34.42 34.42 0 0 0 30.83-19c.14-.26.26-.52.39-.79a34.44 34.44 0 0 0 3.3-14.7V404.1a7.27 7.27 0 0 0-6.16-7.16zm3.88 41.43a32.57 32.57 0 0 1-.38 5 32 32 0 0 1-1.42 5.65c-.12.31-.23.63-.36.94a32.26 32.26 0 0 1-30.08 20.61h-1.83c-17.797-.011-32.223-14.433-32.24-32.23V403.1a5.18 5.18 0 0 1 4.76-5.2h.24a4.45 4.45 0 0 1 1.26.17c.235.055.466.129.69.22.136.06.282.09.43.09a1.06 1.06 0 0 0 .62-.19c.318-.207.51-.56.51-.94v-5.82a8.36 8.36 0 0 1 14.65-5.52l.25.3a1.14 1.14 0 0 0 1.25.36 1.13 1.13 0 0 0 .75-1.06v-5.76a10.43 10.43 0 0 1 20.85 0v12.77a1.13 1.13 0 0 0 2.25 0 5.76 5.76 0 0 1 1.75-4.16 5.51 5.51 0 0 1 1.78-1.19 2.74 2.74 0 0 1 .48-.17 5.91 5.91 0 0 1 1.93-.31 6 6 0 0 1 5.73 6.06v5.24c0 .619.501 1.12 1.12 1.12.36 0 .719.04 1.07.12h.06a5 5 0 0 1 3.88 4.87v34.27z" fill="#640D19" fill-rule="nonzero"/><path d="M48.09 397.24v7.34"/><path d="M48.09 405.71a1.12 1.12 0 0 1-1.12-1.12v-7.35a1.13 1.13 0 0 1 2.25 0v7.33a1.13 1.13 0 0 1-1.13 1.14z" fill="#640D19" fill-rule="nonzero"/><path d="M65 385.49v4.06"/><path d="M65 390.68a1.14 1.14 0 0 1-1.13-1.13v-4.05a1.13 1.13 0 1 1 2.25 0v4.07a1.13 1.13 0 0 1-1.12 1.11z" fill="#640D19" fill-rule="nonzero"/><path d="M102.01 397.98v6.6"/><path d="M102.01 405.71a1.12 1.12 0 0 1-1.12-1.12v-6.61a1.13 1.13 0 1 1 2.25 0v6.59a1.13 1.13 0 0 1-1.13 1.14z" fill="#640D19" fill-rule="nonzero"/><path d="M54.82 402.17a1.86 1.86 0 0 1-1.86-1.86v-6.32a1.86 1.86 0 1 1 3.72 0v6.32a1.86 1.86 0 0 1-1.86 1.86zM72.15 387.09a1.86 1.86 0 0 1-1.86-1.86v-6.32a1.86 1.86 0 1 1 3.72 0v6.32a1.86 1.86 0 0 1-1.86 1.86zM82.55 400.91a1.86 1.86 0 0 1-1.86-1.86v-6.31a1.87 1.87 0 0 1 1.86-1.87 1.87 1.87 0 0 1 1.86 1.87v6.31a1.86 1.86 0 0 1-1.86 1.86zM96.68 400.91a1.87 1.87 0 0 1-1.87-1.86v-6.31a1.87 1.87 0 0 1 1.87-1.87 1.87 1.87 0 0 1 1.86 1.87v6.31a1.86 1.86 0 0 1-1.86 1.86zM102.01 421.91a1.86 1.86 0 0 1-1.86-1.86v-6.32a1.86 1.86 0 0 1 3.72 0v6.32a1.86 1.86 0 0 1-1.86 1.86zM71.71 410.1a1.86 1.86 0 0 1-1.86-1.86v-6.32a1.86 1.86 0 1 1 3.72 0v6.32a1.86 1.86 0 0 1-1.86 1.86zM44.65 419.15a1.86 1.86 0 0 1-1.86-1.86v-6.32a1.86 1.86 0 1 1 3.72 0v6.32a1.86 1.86 0 0 1-1.86 1.86zM60.49 420.2a1.86 1.86 0 0 1-1.86-1.86v-6.32a1.86 1.86 0 1 1 3.72 0v6.32a1.86 1.86 0 0 1-1.86 1.86zM67.03 437.78a1.86 1.86 0 0 1-1.86-1.86v-6.35a1.86 1.86 0 1 1 3.72 0v6.32a1.86 1.86 0 0 1-1.86 1.89zM55.82 447.88a1.86 1.86 0 0 1-1.86-1.86v-6.32a1.86 1.86 0 1 1 3.72 0v6.32a1.86 1.86 0 0 1-1.86 1.86zM52.09 431.27a1.86 1.86 0 0 1-1.86-1.86v-6.32a1.86 1.86 0 0 1 1.86-1.86 1.87 1.87 0 0 1 1.87 1.86v6.32a1.87 1.87 0 0 1-1.87 1.86zM45.41 447.21a1.86 1.86 0 0 1-1.86-1.86v-6.32a1.86 1.86 0 1 1 3.72 0v6.32a1.86 1.86 0 0 1-1.86 1.86zM100.96 436.29a1.86 1.86 0 0 1-1.86-1.86v-6.32a1.86 1.86 0 1 1 3.72 0v6.32a1.86 1.86 0 0 1-1.86 1.86zM96.55 449.24a1.87 1.87 0 0 1-1.86-1.87v-6.31a1.87 1.87 0 0 1 1.86-1.87 1.87 1.87 0 0 1 1.86 1.87v6.31a1.87 1.87 0 0 1-1.86 1.87zM87.19 463.34a1.86 1.86 0 0 1-1.86-1.86v-6.32a1.86 1.86 0 1 1 3.72 0v6.32a1.86 1.86 0 0 1-1.86 1.86zM86.3 439.17a1.86 1.86 0 0 1-1.86-1.86v-6.32a1.86 1.86 0 1 1 3.72 0v6.32a1.87 1.87 0 0 1-1.86 1.86zM75.08 449.26a1.86 1.86 0 0 1-1.86-1.86v-6.32a1.86 1.86 0 1 1 3.72 0v6.32a1.86 1.86 0 0 1-1.86 1.86z" fill="#A0BC5C" fill-rule="nonzero"/><rect fill="#A0BC5C" fill-rule="nonzero" x="89.08" y="407.96" width="3.72" height="10.04" rx=".83"/><path d="M79.77 424.17a1.86 1.86 0 0 1-1.86-1.86v-6.32a1.86 1.86 0 1 1 3.72 0v6.32a1.86 1.86 0 0 1-1.86 1.86zM70.47 466.93a1.86 1.86 0 0 1-1.86-1.86v-6.32a1.86 1.86 0 1 1 3.72 0v6.32a1.86 1.86 0 0 1-1.86 1.86zM59.11 463.02a1.87 1.87 0 0 1-1.86-1.87v-6.31a1.86 1.86 0 1 1 3.72 0v6.31a1.87 1.87 0 0 1-1.86 1.87z" fill="#A0BC5C" fill-rule="nonzero"/><path d="M113.03 419.15v25.2a39.17 39.17 0 0 1-1.81 11.78 24.52 24.52 0 0 1-23.43 16.94h-27.4a24.51 24.51 0 0 1-23.43-16.94 38.86 38.86 0 0 1-1.81-11.78v-25.2h77.88z" fill="#FFF" fill-rule="nonzero"/><path d="M34.02 418.02v26.33a40.05 40.05 0 0 0 1.87 12.12 25.51 25.51 0 0 0 24.5 17.72h27.4a25.71 25.71 0 0 0 19.95-9.33c.15-.18.3-.36.44-.55a25.09 25.09 0 0 0 4.12-7.84 39.58 39.58 0 0 0 1.07-4.12c.532-2.633.8-5.313.8-8v-26.33H34.02zm77.88 26.33v.41a37.34 37.34 0 0 1-1.75 11 22.78 22.78 0 0 1-2.55 5.44c-.14.22-.28.43-.43.64A23.39 23.39 0 0 1 87.8 471.9H60.4a23.27 23.27 0 0 1-22.36-16.15 38.12 38.12 0 0 1-1.74-11.4v-24.08h75.6v24.08z" fill="#640D19" fill-rule="nonzero"/><path d="M.45 191.23s43.71 36 52.71 100.74c0 0 38.06-14 65.9-46.9 0 0-9-78.26-43.11-109.57 0 0-30.42 5.92-75.5 55.73z" stroke="#6D0B1B" stroke-width="2" fill="#F9F8F3" fill-rule="nonzero"/><path d="M8.45 176.73s43.71 36 52.71 100.74c0 0 38.06-14 65.9-46.9 0 0-9-78.26-43.11-109.57 0 0-30.42 5.92-75.5 55.73z" stroke="#6D0B1B" stroke-width="2" fill="#F9F8F3" fill-rule="nonzero"/><path d="M167.2 305.24c-9.85-18.15-10.48-103.19-4.78-158.61 1-9.49 2.14-18.1 3.47-25.37 3.16-30.11 32.11-53.69 67.41-53.69 23.88 0 44.86 10.83 56.91 27.17 13.76 16.37 36.15 53.22 53.24 131 .9 4.047 1.78 8.213 2.64 12.5 26.43 131.66-166.95 89-178.89 67z" stroke="#640D19" stroke-width="2.64" fill="#C58572" fill-rule="nonzero" stroke-linecap="round"/><path d="M167.2 305.24c-9.85-18.15-10.48-103.19-4.78-158.61l58.21-13.06 85.43 36.27a457.12 457.12 0 0 1 37.35 55.9c.9 4.047 1.78 8.213 2.64 12.5 26.47 131.66-166.91 89-178.85 67z" fill="#640D19" fill-rule="nonzero" opacity=".35"/><rect stroke="#640D19" stroke-width="2.64" fill="#CD3F3E" fill-rule="nonzero" transform="rotate(33.63 213.624 315.241)" x="191.959" y="236.241" width="43.33" height="158" rx="21.665"/><path d="M219.97 231.24l-2.67-11.34-10 .21-.66-9.21-6-14.33-23.66-1.67c-20.34 22-20.34 35.34-20.34 45.67a14.67 14.67 0 0 0 5.24 11.57 18.67 18.67 0 0 0-3.2 7l-19.79 86.43c-2.306 10.222 4.073 20.389 14.28 22.76 10.225 2.305 20.393-4.079 22.76-14.29l19.78-86.47a18.44 18.44 0 0 0 .45-3.52c15.42-4.86 23.81-32.81 23.81-32.81z" stroke="#640D19" stroke-width="2.64" fill="#FAD3B6" fill-rule="nonzero"/><path d="M197.11 249.14l-29-7.49a5.58 5.58 0 0 1-4-6.79l2.53-9.81 1.16-4.48 12.9-50a5.57 5.57 0 0 1 6.79-4l29 7.48a5.59 5.59 0 0 1 4 6.8l-16.59 64.28a5.58 5.58 0 0 1-6.79 4.01z" stroke="#6D0B1B" fill="#FFF" fill-rule="nonzero"/><path d="M220.37 176.39a6.08 6.08 0 0 0-3.75-2.82l-27.81-7.19-1.17-.3a6.07 6.07 0 0 0-4.65.66h-.06a6 6 0 0 0-2.58 3.13c-.07.19-.13.37-.18.56l-7.59 29.42-9 34.81a6.12 6.12 0 0 0 4.4 7.47l16.7 4.31 4.78 1.23 7.51 1.94a5.76 5.76 0 0 0 1.88.19 6.14 6.14 0 0 0 5.59-4.59l2.34-9.06 1.92-7.46 1-3.68 1.3-5 4.66-18 .61-2.38 4.8-18.59a6.1 6.1 0 0 0-.7-4.65zm-.42 4.37l-10.15 39.3-.84 3.23-1.15 4.47-3 11.5-1.48 5.72a5 5 0 0 1-6.03 3.59l-6.1-1.58-5.93-1.53-17-4.38a4.94 4.94 0 0 1-3.07-2.31 5 5 0 0 1-.54-3.8l2.74-10.61 1.15-4.45 5.67-22 6.79-26.26.24-.94a5 5 0 0 1 6.11-3.6l23.42 6 .32.09 5.22 1.35a5 5 0 0 1 3.61 6.12l.02.09z" stroke="#6D0B1B" fill="#640D19" fill-rule="nonzero"/><path d="M213.98 178.57a2.17 2.17 0 0 1 1.57 2.65l-1.18 4.59-7.48 29-5.43 21a2.18 2.18 0 0 1-2.66 1.57l-13.58-3.51-12.87-3.32a2.19 2.19 0 0 1-1.56-2.66l1.22-4.74 12.87-49.81a2.19 2.19 0 0 1 2.66-1.57l26.44 6.8z" fill="#640D19" fill-rule="nonzero"/><path d="M182.01 238.83a1.56 1.56 0 1 1-3.021-.78 1.56 1.56 0 0 1 3.021.78z" fill="#640D19" fill-rule="nonzero" opacity=".15"/><path fill="#FDFBF9" fill-rule="nonzero" opacity=".21" d="M219.73 178.29l-3.27 2.88-44.71 39.38-5.11 4.5 1.15-4.46 5.12-4.51 43.79-38.58.66.18zM215.54 184.74l-7.89 30.55-22.87 20.15-15.81-4.09 1.86-7.23z"/><path d="M388.12 278.22l-9.18 187.91H245.3l-20.42-188.45c0-24.3 19.93-44 44.52-44h80.74c24.89 0 37.98 19.94 37.98 44.54z" fill="#E05A5A" fill-rule="nonzero"/><path d="M231.66 327.91l-.06-.56-3.18-29.39-.13-1.2h-.41l-.88.58.16 1.5-1.07.8-.17.14 3 27.79 1.37.19 1 .13-.82 1.24.66 6.15h1.35l-.82-7.37zm148.3-81.48c-.15-.22-.31-.43-.48-.64l-.29-.36c-7-8.63-17-13.18-29-13.18H269.4a46 46 0 0 0-30 11.08c-.43.37-.86.75-1.27 1.14a45.46 45.46 0 0 0-4.6 4.91 45 45 0 0 0-10 28.31v.08l2 18.9.34 3.08 3 27.79.36 3.3.47 4.41v.05l1.72 15.92.17 1.59.17 1.54 9.62 89 2.48 23 .14 1.28h136.21l.28-5.69 7.13-146.13v-.25l1.82-37.21v-.07c.02-12.52-3.35-23.77-9.48-31.85zm5.23 64.29l-.11 2.29v.24l-2.36 48.18v.27l-4.89 100.18-.14 2.8H246.45l-2.31-21.34-9.49-87.77-.16-1.47-.19-1.53-1.86-17.22v-.05l-.79-7.34-.06-.56-3.18-29.39-.13-1.2-.14-1.34-1.92-17.9a42.16 42.16 0 0 1 13.77-31c.61-.57 1.22-1.1 1.86-1.61.64-.51 1-.83 1.55-1.21a43.31 43.31 0 0 1 26-8.6h80.74a37.15 37.15 0 0 1 13.93 2.56h.09c14.07 5.67 22.59 20.32 22.61 40.46l-1.58 32.55zm-153.53 17.19l-.06-.56-3.18-29.39-.13-1.2h-.41l-.88.58.16 1.5-1.07.8-.17.14 3 27.79 1.37.19 1 .13-.82 1.24.66 6.15h1.35l-.82-7.37z" fill="#640D19" fill-rule="nonzero"/><path d="M207.73 220.11l-2.79 13.1s-17.71-1.64-23.31 21.91l13.06 7.12 15.54-14.79 3.57-11.68-6.07-15.66z" stroke="#640D19" stroke-width="2.64" fill="#FAD3B6" fill-rule="nonzero"/><path d="M346.3 272.24l6.33 34.33s3.34 3.33 5.67 12.33-2.67 14-6.33 23-26.67 15.34-26.67 15.34-162-1.67-24.67 26c2.51.5 14.95 2.8 17.34 3l9.83 74.58 50-.5 3.75-80 4.25-69-39.5-39.08z" fill="#CD3F3E" fill-rule="nonzero"/><path d="M352.17 305.35a30.83 30.83 0 0 1 6.13 18.37c0 18.14-16 32.85-35.82 32.85H248.3c-19.78 0-35.82-14.71-35.82-32.85 0-11.18 6.09-21.06 15.4-27l124.29 8.63z" fill="#E05A5A" fill-rule="nonzero"/><path d="M322.47 357.91H248.3c-20.49 0-37.16-15.34-37.16-34.19 0-11.22 6-21.73 16-28.12a1.333 1.333 0 0 1 1.43 2.25c-9.25 5.9-14.77 15.57-14.77 25.87 0 17.38 15.47 31.51 34.48 31.51h74.17c19 0 34.48-14.13 34.48-31.51a29.5 29.5 0 0 0-5.86-17.58 1.364 1.364 0 0 1 2.23-1.57 32.13 32.13 0 0 1 6.37 19.16c-.05 18.84-16.71 34.18-37.2 34.18z" fill="#640D19" fill-rule="nonzero"/><path d="M392.97 472.15h-82.58v-10.27h73.47c5 0 9.11 4.6 9.11 10.27z" stroke="#640D19" stroke-width="2.64" fill="#AAC8C6" fill-rule="nonzero"/><path d="M319.3 471.28H117.02L94.43 354.49a16.18 16.18 0 0 1 15.87-19.24h169.3a16.18 16.18 0 0 1 15.88 13.1l23.82 122.93z" stroke="#640D19" stroke-width="2.64" fill="#AAC8C6" fill-rule="nonzero"/><path d="M311.76 471.28H109.53L86.95 354.49a16.17 16.17 0 0 1 15.87-19.24h169.3a16.17 16.17 0 0 1 15.87 13.1l23.77 122.93z" fill="#CDDFDE" fill-rule="nonzero"/><path fill="#AAC8C6" fill-rule="nonzero" d="M311.76 471.28H109.53l-5.41-27.94h202.24z"/><path d="M311.77 471.97H109.11L86.48 354.63a16.22 16.22 0 0 1 15.9-19.33h169.66a16.22 16.22 0 0 1 15.91 13.16l23.82 123.51z" stroke="#640D19" stroke-width="2.64"/><path d="M322.68 465.83a5.46 5.46 0 1 1-10.92 0 5.46 5.46 0 0 1 10.92 0z" stroke="#640D19" stroke-width="2.64" fill="#CDDFDE" fill-rule="nonzero"/><path d="M182.42 250.69l-6.62 3 18.75 10.69 16.63-15.87 8.37-21.06-6.5-1.38s-9.75 16-10.25 16.12c-.5.12-20.38 8.5-20.38 8.5z" fill="#FAD3B6" fill-rule="nonzero"/><path d="M410.56 461.96l-44.83 28.26a1 1 0 0 0 .53 1.85h139.87a1 1 0 0 0 .88-1.47l-15.43-28.67a1 1 0 0 0-.88-.52l-79.61.4a1 1 0 0 0-.53.15z" stroke="#6D0B1B" stroke-width="2.64" fill="#F9F8F3" fill-rule="nonzero"/><path d="M259.97 251.9s10 38.5 11 47.67c1 9 43.95-33.33 39.95-58-4.13-25.47-50.95 10.33-50.95 10.33z" stroke="#640D19" stroke-width="2.64" fill="#FFF" fill-rule="nonzero" stroke-linecap="round"/><rect stroke="#640D19" stroke-width="2.64" fill="#FAD3B6" fill-rule="nonzero" transform="rotate(-14.02 277.975 217.065)" x="251.725" y="164.555" width="52.5" height="105.02" rx="26.25"/><rect stroke="#640D19" stroke-width="2.64" fill="#FFEDD9" fill-rule="nonzero" transform="rotate(-23.22 237.595 173.544)" x="186.26" y="100.119" width="102.67" height="146.85" rx="51.33"/><path d="M265.97 239.76a49.75 49.75 0 0 1-44.17-2.39 49.4 49.4 0 0 0 30.5-2.86c25.32-10.94 37.15-40.76 26.29-66.25l-17-39.9a50 50 0 0 0-21.62-24.09 50.17 50.17 0 0 1 35.33 29.3l17 39.91c10.83 25.52-1 55.33-26.33 66.28z" fill="#FAD3B6" fill-rule="nonzero"/><path d="M184.86 179.88c.84.136 1.69.183 2.54.14a9.24 9.24 0 0 0 2.41-.44 8.72 8.72 0 0 0 2.13-1 8.11 8.11 0 0 0 .91-.7 4.62 4.62 0 0 0 .7-.76l1.25-1.92 1.06 2.54a4.76 4.76 0 0 0 2.93 3.24 8.47 8.47 0 0 0 9.19-2 4.75 4.75 0 0 0 1.33-4.17 1.342 1.342 0 1 1 2.62-.58 6.9 6.9 0 0 1-.21 3.58 8.31 8.31 0 0 1-1.76 3 11.2 11.2 0 0 1-12.24 2.64 8.21 8.21 0 0 1-2.83-2 6.85 6.85 0 0 1-1.67-3.17l2.31.62a7.86 7.86 0 0 1-1.3.92 10.5 10.5 0 0 1-6.9 1.22 12.73 12.73 0 0 1-2.61-.71.24.24 0 0 1-.14-.31.23.23 0 0 1 .26-.15l.02.01zM227.36 169.88c.84.136 1.69.183 2.54.14a9.24 9.24 0 0 0 2.4-.45 8.72 8.72 0 0 0 2.13-1 8.11 8.11 0 0 0 .91-.7 4.62 4.62 0 0 0 .7-.76l1.25-1.92 1.06 2.54a4.76 4.76 0 0 0 2.95 3.24 8.47 8.47 0 0 0 9.19-2 4.75 4.75 0 0 0 1.33-4.17 1.342 1.342 0 0 1 2.62-.58 6.9 6.9 0 0 1-.21 3.58 8.31 8.31 0 0 1-1.76 3 11.2 11.2 0 0 1-12.24 2.64 8.21 8.21 0 0 1-2.83-2 6.85 6.85 0 0 1-1.67-3.17l2.31.62a7.86 7.86 0 0 1-1.3.92 10.5 10.5 0 0 1-6.9 1.22 12.73 12.73 0 0 1-2.61-.71.24.24 0 0 1-.14-.31.23.23 0 0 1 .26-.15l.01.02z" fill="#6D0B1B" fill-rule="nonzero"/><path d="M226.93 208.24l.17-.07a1.73 1.73 0 0 0-1.23-3.15l-.15.06a5.1 5.1 0 0 1-4.33-.42 7.81 7.81 0 0 1-3.37-3.95 1.55 1.55 0 0 0-1.87-1.06 1.57 1.57 0 0 0-.64 2.09 11.57 11.57 0 0 0 5 5.87 7.52 7.52 0 0 0 6.42.63z" fill="#640D19" fill-rule="nonzero"/><path d="M279.57 154.57a14.65 14.65 0 0 1 9.81-7.59 14.47 14.47 0 1 1-1.25 27.94l-8.56-20.35z" fill="#FAD3B6" fill-rule="nonzero"/><path d="M295.54 176.97l.35-.07a16.18 16.18 0 0 0 12.41-19.24 16.16 16.16 0 0 0-30.21-3.88 1.71 1.71 0 0 0 3.05 1.53 13 13 0 0 1 8.64-6.68 12.76 12.76 0 1 1 5.39 24.94 12.34 12.34 0 0 1-6.53-.29 1.71 1.71 0 0 0-1 3.26 16.23 16.23 0 0 0 7.9.43z" fill="#640D19" fill-rule="nonzero"/><path d="M291.2 154.42a5.25 5.25 0 0 1 6.24 4l-6.24-4z" fill="#FFF2E4" fill-rule="nonzero"/><path d="M297.74 159.93a1.52 1.52 0 0 0 1.16-1.81 6.76 6.76 0 0 0-8.05-5.17 1.53 1.53 0 0 0-1.17 1.81 1.55 1.55 0 0 0 1.81 1.16 3.78 3.78 0 0 1 4.44 2.85 1.51 1.51 0 0 0 1.81 1.16z" fill="#640D19" fill-rule="nonzero"/><path d="M259.97 134.9s4 32.19 17.08 24.55c13.08-7.64 10.25-49.21 10.25-49.21L236.63 84.9l-36.33 6.94 59.67 43.06z" stroke="#640D19" stroke-width="2.64" fill="#C58572" fill-rule="nonzero" stroke-linecap="round"/><path d="M192.3 86.32c.75 2 8.5 20 8.5 20l85.44 39.87 8.44-36.62-36.63-25.75-26-6.25-39.75 8.75z" fill="#C58572" fill-rule="nonzero"/><path d="M263.63 135.27a49.37 49.37 0 0 1 1.08 14.3c-46.49 22.55-81.5 23.33-99.85 21.3a49.52 49.52 0 0 1-4.6-12.44c-6.17-27.53 12-55 40.51-61.43 28.51-6.43 56.69 10.74 62.86 38.27z" stroke="#640D19" stroke-width="2.64" fill="#C58572" fill-rule="nonzero" stroke-linecap="round"/><path d="M256.57 215.57l-.12.48a7.87 7.87 0 0 1-2.09 3.73 13.41 13.41 0 0 1-10.74 3.39 7.92 7.92 0 0 1-3.51-1.54l-.93-.69a1.52 1.52 0 0 1 0-2.48c2-1.38 2.49-3.23 4.11-3.76l7-2.27c1.68-.55 3 1.08 4.93 1.22a1.52 1.52 0 0 1 1.35 1.92z" fill="#E05A5A" fill-rule="nonzero"/><path d="M259.53 210.71s-1.73 4.25-11 7.25-13.68.76-13.68.76" stroke="#E05A5A" stroke-width="1.8" stroke-linecap="round"/><path d="M242.13 219.57s1-2.83 5.17-2.5c0 0 .83-3 6.33-1.5 0 0-4.66 7.33-11.5 4z" fill="#640D19" fill-rule="nonzero"/><path d="M487.91 357.3a20.93 20.93 0 0 0-6-11.51l-104.33-102c-8.613-8.298-22.247-8.298-30.86 0l-.76.74a21.05 21.05 0 0 0 0 30.17l98.89 96.66-15.35 66.61a20.48 20.48 0 0 0 15.8 24.44c11.21 2.46 22.45-4.48 25-15.44l18.2-79a19.74 19.74 0 0 0-.59-10.67z" stroke="#640D19" stroke-width="2.64" fill="#FFEDD9" fill-rule="nonzero"/><path d="M444.3 379.15l43.15-17s-.57-12.48-4.9-14c-4.33-1.52-37.37 27.07-37.37 27.07l-.88 3.93zM450.87 386.02l-.45 1.58-.06.21-1.64 5.76-.52 1.8-.14.49-9.9 34.35-9.43 32.81a7.43 7.43 0 0 1-2.27-2.8 14.46 14.46 0 0 1-1-6.26l6.35-22.1 10.89-37.78.51-1.77 1.62-5.62v-.06l.16-.56a2.49 2.49 0 0 1 3.08-1.7l.32.09 1.92.55a.82.82 0 0 1 .56 1.01z" fill="#FAD3B6" fill-rule="nonzero"/><path d="M482.15 346.33c-.15.14-.3.25-.45.37l-37.55 26.47.4-1.78-19.73-19.28-79.16-77.38a21.07 21.07 0 0 1 0-30.17l.76-.74c8.617-8.3 22.253-8.3 30.87 0l78.5 76.75 25.83 25.25c.18.15.35.34.53.51z" stroke="#640D19" stroke-width="2.64" fill="#E05A5A" fill-rule="nonzero"/><path d="M483.67 346.33a5.07 5.07 0 0 1-.44.37l-37.56 26.47-3.44 2.4a4.86 4.86 0 0 1-6.5-.84 8.37 8.37 0 0 1-9.17-2.72 8.65 8.65 0 0 1-1.87-5.08 5.86 5.86 0 0 1-2.73-1.57 6.31 6.31 0 0 1 0-8.81l4.39-4.47 30.95-31.51 2.58-2.62a6 6 0 0 1 8.63 0 6.29 6.29 0 0 1 1 7.41 8.35 8.35 0 0 1 10.79 2 8.77 8.77 0 0 1 .43 10.29 4.89 4.89 0 0 1 3.73 2.12 5.1 5.1 0 0 1-.79 6.56z" stroke="#640D19" stroke-width="2.64" fill="#E05A5A" fill-rule="nonzero"/><path d="M176.97 170.99s-7.25-15-4.5-23.5M197.22 170.11s-3.38-8.25-4.13-13.75" stroke="#640D19" stroke-width="2.64" fill="#C58572" fill-rule="nonzero" stroke-linecap="round"/><path d="M483.3 485.15h-69.84" stroke="#C2CFD1" stroke-width="2" stroke-linecap="round"/><path d="M204.72 168.86a101.3 101.3 0 0 1-3.88-10.75M239.22 160.24s-4.25-19.5-9.25-28.5" stroke="#640D19" stroke-width="2.64" fill="#C58572" fill-rule="nonzero" stroke-linecap="round"/><path d="M435.3 431.74s-18.5 1-20 5.5-6 32.5 3 28 11.5-20 11.5-20l8.5-5-3-8.5z" stroke="#640D19" stroke-width="2.64" fill="#FFEDD9" fill-rule="nonzero"/><path fill="#F8971F" fill-rule="nonzero" d="M437.698 390.6l5.44 1.567-21.828 75.82-5.44-1.565z"/><path fill="#FFEF04" fill-rule="nonzero" d="M436.166 390.268l5.434 1.585-.664 2.275-5.434-1.585z"/><path d="M443.325 381.266a2.83 2.83 0 0 1 1.937 3.503l-1.618 5.621-5.45-1.568 1.62-5.622a2.83 2.83 0 0 1 3.511-1.934z" fill="#F04F55" fill-rule="nonzero"/><path fill="#F7CE99" fill-rule="nonzero" d="M415 479.73l6.32-11.75-5.43-1.56z"/><path fill="#303030" fill-rule="nonzero" d="M415 479.73l1.99-3.69-1.71-.5z"/><path d="M445.3 381.81l-1.92-.55L415 479.73l2-3.69 4.33-8.06 21.69-75.32.14-.5.51-1.78 2.17-7.53a.84.84 0 0 0-.54-1.04z" fill="#D0D3D4" fill-rule="nonzero"/><path d="M440.03 382.57l-1.73 6-.66 2.28-21.68 75.32-.61 9.13-.28 4.18 2-3.69 4.33-8.06 21.7-75.36.14-.49.51-1.79 1.65-5.73.06-.21.46-1.59a.83.83 0 0 0-.57-1l-1.92-.56-.32-.09a2.49 2.49 0 0 0-3.08 1.66z" stroke="#6D0B1B" stroke-width="2.64"/><path d="M461.77 468.57c-9.17-.87-26.77-.22-33.67-5.7a7.59 7.59 0 0 1-2.27-2.8 14.64 14.64 0 0 1-1-6.26c.16-9.33 5.44-21.74 5.44-21.74s.31-.15.92-.37a36.77 36.77 0 0 1 6.37-1.64c8.52-1.46 24-1.62 43.59 9 7.15 8.01-8.85 30.51-19.38 29.51z" stroke="#640D19" stroke-width="2.64" fill="#FFEDD9" fill-rule="nonzero"/><path d="M291.3 171.31a4.59 4.59 0 1 0 9.082-1.339 4.59 4.59 0 0 0-9.082 1.339z" fill="#FFF" fill-rule="nonzero"/><path d="M19.97 156.9s42 39.34 48 106.67c0 0 38.66-12.67 68-45.33 0 0-5.34-81.34-38-115.34 0 0-30.67 4.67-78 54z" stroke="#6D0B1B" stroke-width="2" fill="#F9F8F3" fill-rule="nonzero"/><path d="M95.05 120.07s-22 8.25-53.75 37.5M99.55 127.4s-22 8.25-53.75 37.5M104.05 135.57s-22 8.25-53.75 37.5M117.65 169.25s-21.23 6.41-52.85 31.82M120.9 178s-21.23 6.41-52.85 31.82M60.8 191.07s18.5-13.5 28.25-18.25M112.05 159.82s-12.5 6-16.25 9.25" stroke="#C2CFD1" stroke-width="3" stroke-linecap="round"/><path d="M495.3 47.83c-.08 8.48-1 85.36-7 93.07 0 0-11.17 8.17-18.67 9.17l-1-2.83-2.33 4.16-2.17-1.66-1.16 2.16s-6.17.17-10.17-.16l-47.17-18.5-2-91.17 75.5 3 15.41 1.91a.84.84 0 0 1 .76.85z" stroke="#6D0B1B" stroke-width="2" fill="#FFF" fill-rule="nonzero"/><path d="M452.8 151.74s19.5-27.5 16.33-99.67l-61.08 1.5-15.5 69 36.57 19.61 23.68 9.56z" stroke="#6D0B1B" stroke-width="2" fill="#D2D2D2" fill-rule="nonzero"/><path d="M377.13 17.9s22 4.16 37.88 1.43a.29.29 0 0 1 .13 0l79.29 27.43a.28.28 0 0 1 0 .53c-4.09 1-21.63 5-37.12 2.94" stroke="#640D19" stroke-width="1.8" fill="#EA8A32" fill-rule="nonzero" stroke-linecap="round"/><path d="M377.42 21.78c-.9 15.4-13.7 66-39.5 80.54-2.62 1.48-.24 5 4.78 6.71l83.1 37.87a2.78 2.78 0 0 0 3.18-.76c7.18-7.91 45.06-48.58 40.2-94.78-.09-.79-2.64-1.49-4.13-2l-86.46-31c-1.93-.6-1.02 1.05-1.17 3.42z" stroke="#6D0B1B" stroke-width="2" fill="#E9E8E8" fill-rule="nonzero"/><path d="M376.46 21.57c-2.54 12.59-12.77 53.61-40 63.34-2.77 1-7.19 2.76-.24 6l79.18 35.2a3.25 3.25 0 0 0 3.24-.35c8-5.88 44.49-34.7 48.88-73a3.25 3.25 0 0 0-2.14-3.45l-84.68-30.2a3.24 3.24 0 0 0-4.24 2.46z" stroke="#6D0B1B" stroke-width="2" fill="#FFF" fill-rule="nonzero"/><path d="M377.13 17.9l-4.66 21 88.66 34.67s6.67-8.67 6.67-23.33L377.13 17.9z" stroke="#640D19" stroke-width="1.8" fill="#F99D3C" fill-rule="nonzero" stroke-linecap="round"/><path d="M478.88 50.22s1 10.3.59 15M475.8 147.57s4.5-14.25 3.75-20.75M482.8 144.32s2.25-9 2.5-11.5" stroke="#6D0B1B" stroke-width="2" fill="#D2D2D2" fill-rule="nonzero" stroke-linecap="round"/><path d="M465.12 34.32a16.94 16.94 0 0 1-.28 3.1l-2.77-1a13.83 13.83 0 0 0 .16-2.14c0-7.53-5.83-13.65-13-13.65a13 13 0 0 0-11.54 7.36 14.19 14.19 0 0 0-1.46 6.29 14.51 14.51 0 0 0 .7 4.43 13.82 13.82 0 0 0 4 6 1.45 1.45 0 0 1-1 2.53 1.47 1.47 0 0 1-1-.36 17 17 0 0 1-5.63-12.64 16.91 16.91 0 0 1 1.6-7.24 15.85 15.85 0 0 1 14.29-9.31c8.81.08 15.93 7.5 15.93 16.63zM430.3 21.57a17 17 0 0 1-.45 3.9l-2.75-1a14.55 14.55 0 0 0 .3-3c0-7.53-5.82-13.65-13-13.65s-13 6.11-13 13.62a14 14 0 0 0 .41 3.37 13.67 13.67 0 0 0 4.25 7.1 1.45 1.45 0 0 1-1 2.53 1.42 1.42 0 0 1-.95-.35 16.66 16.66 0 0 1-5.49-10.52 15.91 15.91 0 0 1-.13-2.08 2.35 2.35 0 0 1 0-.27c.13-9 7.2-16.27 15.88-16.27s15.93 7.46 15.93 16.62z" fill="#6D0B1B" fill-rule="nonzero"/><g opacity=".25" fill="#640D19" fill-rule="nonzero"><path d="M378.8 66.3a35.69 35.69 0 0 1 7.66.37c1.16.19 4.26.41 4.93 1.25.67.84-1.57 5.41-1.24 5-1.21 1.4-3.47 1.69-5.16 2.1-8.14 2-16.46 3.45-24.66 5.16-3.13.66-2.51 4.8 0 5.74a404.571 404.571 0 0 0 31.16 10.29c3.69 1 5.27-4.69 1.59-5.74a403.855 403.855 0 0 1-31.17-10.29v5.74c7.387-1.54 14.777-3.083 22.17-4.63 4.51-1 9.55-1.95 11.87-6.42 1.7-3.28 2.55-8.91-.62-11.54-3.91-3.23-11.76-3.22-16.53-3-3.82.16-3.84 6.11 0 6v-.03zM416.91 73.42a88.79 88.79 0 0 1-14.8 8.23c-2.21 1-1.65 4 0 5.14a67.15 67.15 0 0 0 24.92 10.29c3.74.73 5.34-5 1.58-5.74a62.87 62.87 0 0 1-23.5-9.69v5.14a88.88 88.88 0 0 0 14.81-8.22c3.13-2.16.16-7.32-3-5.14l-.01-.01z"/><path d="M430.86 75.27c-10.75 6.83-18.53 16.94-28 25.28-2.88 2.54 1.34 6.73 4.21 4.21 9.07-8 16.5-17.81 26.79-24.35 3.22-2.05.24-7.21-3-5.14z"/></g><path d="M509.47 270.23l-33.26-5.44a6.28 6.28 0 0 1-5.18-7.21l1.84-11.25.84-5.13 9.38-57.33a6.28 6.28 0 0 1 7.21-5.18l33.26 5.45a6.27 6.27 0 0 1 5.18 7.2l-12.06 73.71a6.28 6.28 0 0 1-7.21 5.18z" stroke="#640D19"/><path d="M528.15 186.3a6.86 6.86 0 0 0-4.49-2.78l-33.26-5.44a6.89 6.89 0 0 0-7.93 5.69l-12.06 73.71a6.9 6.9 0 0 0 5.7 7.92l33.26 5.45a6.93 6.93 0 0 0 7.93-5.7l12.06-73.71a6.84 6.84 0 0 0-1.21-5.14zm0 4.94l-12.06 73.71a5.66 5.66 0 0 1-6.49 4.66l-33.3-5.44a5.66 5.66 0 0 1-4.67-6.49l2-12.15.84-5.13 9.24-56.43a5.66 5.66 0 0 1 6.49-4.66l33.26 5.44a5.65 5.65 0 0 1 3.67 2.28 5.55 5.55 0 0 1 .99 4.21h.03z" stroke="#640D19"/><path d="M521.21 189.36a2.44 2.44 0 0 1 2 2.81l-.85 5.27-5.44 33.22-3.95 24.12a2.46 2.46 0 0 1-2.82 2l-15.58-2.55-14.77-2.42a2.46 2.46 0 0 1-2-2.82l.89-5.44 9.37-57.16a2.46 2.46 0 0 1 2.82-2l30.33 4.97z" fill="#CDDFDE" fill-rule="nonzero"/><path d="M495.72 260.82a1.76 1.76 0 1 1-3.48-.528 1.76 1.76 0 0 1 3.48.528z" fill="#640D19" fill-rule="nonzero" opacity=".15"/><path fill="#FDFBF9" fill-rule="nonzero" opacity=".21" d="M527.63 188.5l-3.38 3.56-46.11 48.7-5.27 5.57.83-5.13 5.28-5.57 45.17-47.7.76.12zM523.59 196.16l-5.74 35.05-23.6 24.91-18.13-2.97 1.35-8.29z"/><circle fill="#640D19" fill-rule="nonzero" transform="rotate(-67.23 502.558 207.98)" cx="502.558" cy="207.979" r="11.47"/><path d="M505.3 208.57s-.55.82-2.47.48h-.42c-1.92-.3-2.17-1.25-2.17-1.25a5.21 5.21 0 0 0-5 4.57 26.29 26.29 0 0 0 13.4 2.24 5.23 5.23 0 0 0-3.34-6.04zM502.76 207.92c3 .25 3.67-2.93 3.67-2.93.84-3.86-2.46-4.28-2.46-4.28s-3.27-.67-3.73 3.25c0 0-.44 3.2 2.52 3.96z" fill="#FFF" fill-rule="nonzero"/><path d="M530.91 176.88h-.18a1.59 1.59 0 0 0-1.58 1.52 1.55 1.55 0 0 0 1.12 1.84h.15a5.1 5.1 0 0 1 3.58 2.48 7.76 7.76 0 0 1 1 5.09 1.55 1.55 0 0 0 1.12 1.84 1.57 1.57 0 0 0 1.57-1.52 11.54 11.54 0 0 0-1.51-7.56 7.55 7.55 0 0 0-5.27-3.69zM467.88 271.77h.18a1.57 1.57 0 0 0 1.67-1.41 1.54 1.54 0 0 0-1-1.9h-.15a5.12 5.12 0 0 1-3.41-2.71 7.81 7.81 0 0 1-.67-5.15 1.56 1.56 0 0 0-1-1.91 1.57 1.57 0 0 0-1.67 1.41 11.49 11.49 0 0 0 1 7.64 7.59 7.59 0 0 0 5.05 4.03z" fill="#640D19" fill-rule="nonzero"/><path d="M533.18 170.69s13.12 1.88 11.74 17.63M465.3 277.64s-12.67-3.91-8.84-19.25" stroke="#640D19" stroke-width="2.64" stroke-linecap="round"/><path d="M490.45 234.57a4.34 4.34 0 1 0-1.094 8.61 4.34 4.34 0 0 0 1.094-8.61zm1.4 6l-.65.53a.73.73 0 0 1-.7.06 5.33 5.33 0 0 1-2.56-3.69c-.08-.44.68-.9.92-1 .24-.1.29 0 .29 0 .204.342.388.696.55 1.06a.28.28 0 0 1-.12.28l-.73.23a3.89 3.89 0 0 0 1.42 2l.45-.6c.12-.17.32 0 .32 0l.78.85c.079.1.09.238.03.35v-.07z" fill="#B8D47B" fill-rule="nonzero"/><path d="M509.2 241.1a4.34 4.34 0 1 0-8.655-.657 4.34 4.34 0 0 0 8.655.657zm-5.9 1.72s-.32-.34-.57-.63a.76.76 0 0 1-.1-.7 5.36 5.36 0 0 1 3.56-2.74c.43-.1.94.63 1 .87.06.24 0 .28 0 .28a9.69 9.69 0 0 1-1 .61.28.28 0 0 1-.29-.1l-.26-.72a3.86 3.86 0 0 0-2 1.52l.62.42a.24.24 0 0 1 .06.32l-.81.82a.32.32 0 0 1-.21.05z" fill="#640D19" fill-rule="nonzero"/><path d="M325.3 39.57a5.79 5.79 0 1 1-.02-11.58 5.79 5.79 0 0 1 .02 11.58zm0-9.57a3.79 3.79 0 1 0-.02 7.58 3.79 3.79 0 0 0 .02-7.58z" fill="#640D19" fill-rule="nonzero" opacity=".25"/><g opacity=".25" fill="#640D19" fill-rule="nonzero"><path d="M340.62 53.9a.91.91 0 0 1-.91-.91V42.15a.91.91 0 0 1 1.82 0v10.84a.91.91 0 0 1-.91.91z"/><path d="M346.01 48.48h-10.84a.91.91 0 0 1 0-1.82h10.84a.91.91 0 0 1 0 1.82z"/></g><path d="M131.38 254.87a4.34 4.34 0 1 1 0-8.68 4.34 4.34 0 0 1 0 8.68zm0-7.17a2.84 2.84 0 1 0 0 5.68 2.84 2.84 0 0 0 0-5.68zM9.38 259.12a4.34 4.34 0 1 1 0-8.68 4.34 4.34 0 0 1 0 8.68zm0-7.17a2.84 2.84 0 1 0 0 5.68 2.84 2.84 0 0 0 0-5.68zM111.13 99.62a4.34 4.34 0 1 1 0-8.68 4.34 4.34 0 0 1 0 8.68zm0-7.17a2.84 2.84 0 1 0 0 5.68 2.84 2.84 0 0 0 0-5.68zM435.63 161.57a4.34 4.34 0 1 1 0-8.68 4.34 4.34 0 0 1 0 8.68zm0-7.17a2.84 2.84 0 1 0 2.84 2.83 2.83 2.83 0 0 0-2.84-2.86v.03zM512.8 294.57a4.34 4.34 0 1 1 4.33-4.33 4.33 4.33 0 0 1-4.33 4.33zm0-7.17a2.84 2.84 0 1 0-.02 5.68 2.84 2.84 0 0 0 .02-5.68zM526.3 160.9a5.79 5.79 0 1 1 5.78-5.78 5.78 5.78 0 0 1-5.78 5.78zm0-9.57a3.79 3.79 0 1 0-.02 7.58 3.79 3.79 0 0 0 .02-7.58zM443.3 12.57a5.79 5.79 0 1 1-.02-11.58 5.79 5.79 0 0 1 .02 11.58zm0-9.57a3.79 3.79 0 1 0-.02 7.58A3.79 3.79 0 0 0 443.3 3zM458.63 248.57a5.79 5.79 0 1 1 0-11.58 5.79 5.79 0 0 1 0 11.58zm0-9.57a3.79 3.79 0 1 0 0 7.58 3.79 3.79 0 0 0 0-7.58z" fill="#640D19" fill-rule="nonzero" opacity=".25"/><g opacity=".25" fill="#640D19" fill-rule="nonzero"><path d="M527.3 283.24a.92.92 0 0 1-.92-.92v-10.84a.92.92 0 0 1 1.83 0v10.84a.92.92 0 0 1-.91.92z"/><path d="M532.68 277.82h-10.84a.92.92 0 1 1 0-1.83h10.84a.92.92 0 0 1 0 1.83z"/></g><g opacity=".25" fill="#640D19" fill-rule="nonzero"><path d="M463.95 185.24a.92.92 0 0 1-.91-.92v-10.84a.92.92 0 0 1 1.83 0v10.84a.92.92 0 0 1-.92.92z"/><path d="M469.3 179.82h-10.8a.92.92 0 0 1 0-1.83h10.8a.92.92 0 1 1 0 1.83z"/></g><g opacity=".25" fill="#640D19" fill-rule="nonzero"><path d="M137.95 243.57a.91.91 0 0 1-.91-.91v-10.84a.92.92 0 1 1 1.83 0v10.84a.92.92 0 0 1-.92.91z"/><path d="M143.3 238.15h-10.8a.92.92 0 0 1 0-1.83h10.8a.92.92 0 1 1 0 1.83z"/></g><g opacity=".25" fill="#640D19" fill-rule="nonzero"><path d="M134.95 118.57a.91.91 0 0 1-.91-.91v-10.84a.92.92 0 1 1 1.83 0v10.84a.92.92 0 0 1-.92.91z"/><path d="M140.3 113.15h-10.8a.92.92 0 0 1 0-1.83h10.8a.92.92 0 1 1 0 1.83z"/></g><g opacity=".25" fill="#640D19" fill-rule="nonzero"><path d="M32.45 295.07a.91.91 0 0 1-.91-.91v-10.84a.92.92 0 1 1 1.83 0v10.84a.92.92 0 0 1-.92.91z"/><path d="M37.84 289.65H27a.92.92 0 0 1 0-1.83h10.84a.92.92 0 1 1 0 1.83z"/></g><g opacity=".25" fill="#640D19" fill-rule="nonzero"><path d="M10.96 243.94a1.15 1.15 0 0 1-1.16-1.15v-13.77a1.16 1.16 0 1 1 2.32 0v13.77a1.15 1.15 0 0 1-1.16 1.15z"/><path d="M17.81 237.06H4.04a1.16 1.16 0 1 1 0-2.32h13.77a1.16 1.16 0 0 1 0 2.32z"/></g><g opacity=".25" fill="#640D19" fill-rule="nonzero"><path d="M21.87 250.63a.73.73 0 0 1-.73-.73v-8.63a.73.73 0 1 1 1.46 0v8.63a.73.73 0 0 1-.73.73z"/><path d="M26.16 246.32h-8.63a.73.73 0 1 1 0-1.46h8.63a.73.73 0 0 1 0 1.46z"/></g><g opacity=".25" fill="#640D19" fill-rule="nonzero"><path d="M84.3 96.28a1.06 1.06 0 0 1-1.06-1.07V82.57a1.07 1.07 0 0 1 2.13 0v12.62a1.07 1.07 0 0 1-1.07 1.09z"/><path d="M90.57 89.97H77.95a1.07 1.07 0 1 1 0-2.13h12.62a1.07 1.07 0 0 1 0 2.13z"/></g><g opacity=".25" fill="#640D19" fill-rule="nonzero"><path d="M99.95 88.24a.67.67 0 0 1-.65-.67v-8a.68.68 0 1 1 1.35 0v8a.67.67 0 0 1-.7.67z"/><path d="M103.92 84.24h-8a.67.67 0 0 1 0-1.34h8a.67.67 0 0 1 0 1.34z"/></g><g opacity=".25" fill="#640D19" fill-rule="nonzero"><path d="M485.62 30.65a.91.91 0 0 1-.91-.91V18.9a.91.91 0 0 1 1.82 0v10.84a.91.91 0 0 1-.91.91z"/><path d="M491.01 25.23h-10.84a.91.91 0 1 1 0-1.82h10.84a.91.91 0 1 1 0 1.82z"/></g><g opacity=".25" fill="#640D19" fill-rule="nonzero"><path d="M504.37 152.9a.91.91 0 0 1-.91-.91v-10.84a.91.91 0 0 1 1.82 0v10.84a.91.91 0 0 1-.91.91z"/><path d="M509.76 147.48h-10.84a.91.91 0 0 1 0-1.82h10.84a.91.91 0 0 1 0 1.82z"/></g><g opacity=".25" fill="#640D19" fill-rule="nonzero"><path d="M540.37 225.4a.91.91 0 0 1-.91-.91v-10.84a.91.91 0 0 1 1.82 0v10.84a.91.91 0 0 1-.91.91z"/><path d="M545.76 219.98h-10.84a.91.91 0 0 1 0-1.82h10.84a.91.91 0 0 1 0 1.82z"/></g><g opacity=".25" fill="#640D19" fill-rule="nonzero"><path d="M495.61 162.03a.69.69 0 0 1-.68-.68v-8.06a.68.68 0 1 1 1.36 0v8.06a.68.68 0 0 1-.68.68z"/><path d="M499.62 158h-8.06a.68.68 0 1 1 0-1.36h8.06a.68.68 0 1 1 0 1.36z"/></g><path d="M435.73 374.76l11.07-8.69M424.69 366.96l6.48-6.14M469.53 325.33l-8.61 7.74" stroke="#640D19" stroke-width="2.64" fill="#E05A5A" fill-rule="nonzero" stroke-linecap="round"/></g></svg>